# xmcd
#
# Track frame offsets:
#	150
#	29416
#	47793
#	70143
#	87095
#	107226
#	126334
#	147359
#	165740
#	184817
#
# Disc length: 2862 seconds
#
# Revision: 1
# Processed by: cddbd v1.5.2PL0 Copyright (c) Steve Scherf et al.
# Submitted via: audiograbber 1.80
#
DISCID=8e0b2c0a
DTITLE=Johnny Tornado's Stormriders - Roll The Dice
DYEAR=1900
DGENRE=
TTITLE0=VooDoo Queen
TTITLE1=Just Like Jimmy Reed
TTITLE2=Stormriders Ridin'
TTITLE3=Intentions Were Good
TTITLE4=Lonely Highway
TTITLE5=Can't Have it your way
TTITLE6=Kristine
TTITLE7=Raw to the Bone
TTITLE8=Ride the Wild Surf (Roll the Dice)
TTITLE9=Mr. Blues
EXTD=
EXTT0=
EXTT1=
EXTT2=
EXTT3=
EXTT4=
EXTT5=
EXTT6=
EXTT7=
EXTT8=
EXTT9=
PLAYORDER=
